<svg width="32" height="32" viewBox="0 0 32 32" fill="none" xmlns="http://www.w3.org/2000/svg">
<path d="M25 13C25 10.6131 24.0521 8.32357 22.3643 6.63574C20.6764 4.94791 18.3869 4 16 4C13.6131 4 11.3236 4.94791 9.63574 6.63574C7.94791 8.32357 7 10.6131 7 13C7 14.6417 7.26396 15.6973 7.61035 16.4424C7.9557 17.1851 8.41478 17.6924 8.94922 18.2158C9.45984 18.7159 10.1434 19.3173 10.6465 20.1289C11.1793 20.9885 11.5 22.0433 11.5 23.5C11.5 24.6935 11.9744 25.8377 12.8184 26.6816C13.6623 27.5256 14.8065 28 16 28C17.3475 28 18.3675 27.4068 19.2295 26.3633C19.5812 25.9376 20.211 25.8778 20.6367 26.2295C21.0624 26.5812 21.1222 27.211 20.7705 27.6367C19.615 29.0356 18.0675 30 16 30C14.2761 30 12.6223 29.3157 11.4033 28.0967C10.1843 26.8777 9.5 25.2239 9.5 23.5C9.5 22.3637 9.25817 21.6843 8.94727 21.1826C8.60667 20.6331 8.16503 20.2461 7.55078 19.6445C6.96029 19.0663 6.29426 18.358 5.7959 17.2861C5.29861 16.2166 5 14.8582 5 13C5 10.0826 6.15878 7.28458 8.22168 5.22168C10.2846 3.15878 13.0826 2 16 2C18.9174 2 21.7154 3.15878 23.7783 5.22168C25.8412 7.28458 27 10.0826 27 13C27 13.5523 26.5523 14 26 14C25.4477 14 25 13.5523 25 13Z" fill="#D2CDC6"/>
<path d="M17 20C17 18.1273 17.9651 16.8806 18.7002 15.9004C19.4651 14.8806 20 14.1272 20 13C20 11.9391 19.5783 10.922 18.8281 10.1719C18.078 9.42173 17.0609 9 16 9C14.9391 9 13.922 9.42173 13.1719 10.1719C12.4217 10.922 12 11.9391 12 13C12 13.5523 11.5523 14 11 14C10.4477 14 10 13.5523 10 13C10 11.4087 10.6326 9.88303 11.7578 8.75781C12.883 7.63259 14.4087 7 16 7C17.5913 7 19.117 7.63259 20.2422 8.75781C21.3674 9.88303 22 11.4087 22 13C22 14.8727 21.0349 16.1194 20.2998 17.0996C19.5349 18.1194 19 18.8728 19 20C18.9999 20.2201 19.0722 20.4347 19.2061 20.6094C19.3401 20.7841 19.5285 20.9098 19.7412 20.9668C19.9539 21.0238 20.1794 21.0091 20.3828 20.9248C20.5862 20.8405 20.7562 20.6908 20.8662 20.5C21.1422 20.0218 21.7541 19.8579 22.2324 20.1338C22.7106 20.4098 22.8745 21.0217 22.5986 21.5C22.2686 22.0721 21.7586 22.5196 21.1484 22.7725C20.5383 23.0253 19.8616 23.0694 19.2236 22.8984C18.5855 22.7275 18.0212 22.3503 17.6191 21.8262C17.2675 21.3676 17.0567 20.8186 17.0098 20.2461L17 20Z" fill="#D2CDC6"/>
</svg>
