<!DOCTYPE svg PUBLIC "-//W3C//DTD SVG 20010904//EN"
 "http://www.w3.org/TR/2001/REC-SVG-20010904/DTD/svg10.dtd"><svg version="1.0" xmlns="http://www.w3.org/2000/svg" width="512.000000pt" height="512.000000pt" viewBox="0 0 512.000000 512.000000" preserveAspectRatio="xMidYMid meet"><metadata>Created by potrace 1.16, written by Peter Selinger 2001-2019</metadata><g transform="translate(0.000000,512.000000) scale(0.100000,-0.100000)"><path d="M2260 4785c-661-92-1248-472-1605-1040-167-265-286-604-325-925-17-144-12-438 10-588 58-397 219-766 470-1082 147-184 388-395 594-520 200-120 471-227 702-276 63-13 116-24 119-24s5 387 5 860v860h-530v600h528l4 313c4 281 7 320 26 391 74 269 247 442 518 518 73 21 100 22 359 22 154 0 292-3 308-7l27-7v-548l-227-4c-255-4-287-11-342-74-47-53-53-90-58-346l-5-238h296c230 0 296-3 296-12 0-7-16-142-37-300l-37-288h-526V330l48 6c199 25 478 111 676 209 237 116 423 253 616 451 336 345 539 758 611 1239 23 159 26 458 5 615-58 426-231 818-514 1158-353 426-888 713-1452 782-116 14-444 11-560-5"/></g></svg>