<!DOCTYPE svg PUBLIC "-//W3C//DTD SVG 20010904//EN"
 "http://www.w3.org/TR/2001/REC-SVG-20010904/DTD/svg10.dtd"><svg version="1.0" xmlns="http://www.w3.org/2000/svg" width="512.000000pt" height="512.000000pt" viewBox="0 0 512.000000 512.000000" preserveAspectRatio="xMidYMid meet"><metadata>Created by potrace 1.16, written by Peter Selinger 2001-2019</metadata><g transform="translate(0.000000,512.000000) scale(0.100000,-0.100000)"><path d="M902 4250c-210-55-378-214-449-423l-28-82V1375l28-82c71-211 240-369 453-423 75-19 117-20 1654-20s1579 1 1654 20c213 54 382 212 453 423l28 82v2370l-28 82c-71 211-240 369-453 423-75 20-116 20-1658 19-1523 0-1584-1-1654-19m3243-441c60-31 104-89 108-143l2-38-840-514c-542-332-847-513-860-510-11 2-396 233-855 514l-835 510 2 37c5 73 66 138 152 161 36 10 383 12 1561 11l1516-2zM1680 2628c410-250 759-462 776-471 47-24 104-30 153-17 32 8 1285 759 1612 966l39 25-2-855-3-854-30-43c-18-26-50-53-80-68l-49-26H1024l-49 26c-30 15-62 42-80 68l-30 43-3 854-2 855 37-24c21-13 373-229 783-479"/></g></svg>