<!DOCTYPE svg PUBLIC "-//W3C//DTD SVG 20010904//EN"
 "http://www.w3.org/TR/2001/REC-SVG-20010904/DTD/svg10.dtd"><svg version="1.0" xmlns="http://www.w3.org/2000/svg" width="512.000000pt" height="512.000000pt" viewBox="0 0 512.000000 512.000000" preserveAspectRatio="xMidYMid meet"><metadata>Created by potrace 1.16, written by Peter Selinger 2001-2019</metadata><g transform="translate(0.000000,512.000000) scale(0.100000,-0.100000)"><path d="M3155 4696c-5-2-22-7-37-10-35-8-94-59-116-100-22-42-22-170 0-211 21-40 66-81 103-95 17-7 82-16 145-21 214-15 413-86 560-198 92-69 231-217 289-305 95-146 145-305 160-514 6-71 16-132 25-150 61-118 245-147 347-55 57 52 74 116 65 252-28 417-195 745-531 1044-255 227-545 345-885 361-63 3-119 4-125 2"/><path d="M902 4466c-241-59-451-307-477-566-13-125 38-482 105-745 165-645 481-1206 935-1661 611-612 1392-976 2282-1064 184-18 273 10 440 139 155 119 217 205 253 347 19 72 20 112 20 581 0 483-1 505-20 543-11 21-35 51-54 65-19 15-287 127-595 251-601 240-607 242-686 205-61-29-103-81-209-263-54-93-103-168-110-168-17 0-128 80-238 171-146 121-294 284-402 443l-47 69 183 107c219 129 235 141 261 198 35 81 29 101-213 707-123 308-232 573-243 589-11 15-38 37-61 47-38 17-74 19-556 18-382-1-529-4-568-13m1022-788c88-204 156-373 150-375-5-2-99-59-208-126-131-80-210-135-230-160-29-37-31-43-31-125l1-87 58-105c251-446 596-792 1035-1034 116-64 172-77 248-56 74 21 126 82 238 275 54 94 99 172 101 173 1 2 174-63 384-144l381-149-3-370-3-370-35-59c-54-90-74-101-183-100-176 3-535 77-787 162-480 163-876 409-1236 767-351 350-595 726-762 1175-92 245-163 566-178 802-6 97-5 110 15 152 25 51 80 102 126 115 17 5 194 10 395 10l365 1z"/><path d="M3088 3820c-106-56-139-211-69-322 34-54 81-78 171-88 75-8 101-19 148-64 47-43 64-80 72-156 10-90 34-137 88-171 113-72 273-35 323 75 23 52 25 187 4 271-29 115-71 183-174 286-140 140-254 189-436 189-69-1-98-5-127-20"/></g></svg>