<!DOCTYPE svg PUBLIC "-//W3C//DTD SVG 20010904//EN"
 "http://www.w3.org/TR/2001/REC-SVG-20010904/DTD/svg10.dtd"><svg version="1.0" xmlns="http://www.w3.org/2000/svg" width="512.000000pt" height="512.000000pt" viewBox="0 0 512.000000 512.000000" preserveAspectRatio="xMidYMid meet"><metadata>Created by potrace 1.16, written by Peter Selinger 2001-2019</metadata><g transform="translate(0.000000,512.000000) scale(0.100000,-0.100000)"><path d="M2305 5114c-865-89-1620-599-2020-1367-132-254-211-491-261-787-22-131-30-526-14-672 66-612 326-1141 771-1574 185-179 373-314 599-432 176-92 156-109 163 140 7 255-4 197 208 1093l162 683-20 49c-44 103-57 181-58 338 0 242 51 396 177 530 94 101 188 145 308 145 202 0 333-149 333-380 0-119-13-180-123-556-49-165-94-329-101-363-37-190 48-364 218-444 59-27 82-32 167-35 180-8 306 40 436 164 240 230 380 603 406 1084 25 465-152 804-513 984-295 148-778 151-1103 8-328-145-582-444-675-794-83-316-44-610 110-818 61-82 65-114 30-245-33-124-45-157-65-172-36-29-101-9-210 62-193 125-323 357-376 669-22 133-15 411 14 537 59 250 169 465 346 676 280 334 691 543 1186 603 122 14 408 12 525-5 376-54 707-221 961-487 146-152 251-327 319-532 48-143 65-261 65-458 0-842-424-1510-1064-1677-294-77-572-36-776 114-48 36-113 101-142 145-12 19-17 22-22 10-3-8-42-159-86-335-120-474-156-574-290-801-33-55-60-103-60-106 0-18 292-79 468-98 146-16 530-8 662 14 296 50 533 128 787 261 655 341 1140 961 1308 1670 52 222 60 302 60 605 0 298-8 380-56 590-217 937-976 1695-1914 1909-195 45-273 53-540 56-143 2-278 1-300-1"/></g></svg>