<!DOCTYPE svg PUBLIC "-//W3C//DTD SVG 20010904//EN"
 "http://www.w3.org/TR/2001/REC-SVG-20010904/DTD/svg10.dtd"><svg version="1.0" xmlns="http://www.w3.org/2000/svg" width="512.000000pt" height="512.000000pt" viewBox="0 0 512.000000 512.000000" preserveAspectRatio="xMidYMid meet"><metadata>Created by potrace 1.16, written by Peter Selinger 2001-2019</metadata><g transform="translate(0.000000,512.000000) scale(0.100000,-0.100000)"><path d="M3354 4629c-209-35-408-143-566-307-199-207-292-431-293-707 0-66 4-150 8-187l9-68h-49c-118 0-384 45-570 96-562 154-1070 471-1456 909-39 44-74 81-78 83-5 2-19-19-33-47-106-209-141-477-92-706 53-245 196-468 401-624l30-23-50 7c-126 16-218 42-328 93-42 19-80 33-83 29-12-11 17-229 42-314 92-320 345-584 664-694 105-35 107-37 72-43-90-17-224-23-311-15-52 5-96 7-99 5-10-10 72-184 122-260 160-241 429-416 696-456 41-6 90-13 108-16l33-5-46-35c-113-87-330-205-481-262-160-61-308-98-494-123-93-12-429-15-479-4-56 12-33-9 81-77 357-210 737-335 1168-384 147-16 494-18 641-4 388 39 753 143 1079 308 248 126 424 252 634 453 615 590 966 1392 966 2209v140l93 73c109 88 275 259 364 376 65 87 75 108 46 96-73-31-282-99-352-115-85-19-201-39-201-35 0 1 18 15 41 29 62 42 196 174 245 242 44 62 128 228 140 276 6 26 4 26-119-36-159-81-261-120-417-161l-126-32-61 58c-143 134-306 216-502 253-90 17-308 20-397 5"/></g></svg>