<!DOCTYPE svg PUBLIC "-//W3C//DTD SVG 20010904//EN"
 "http://www.w3.org/TR/2001/REC-SVG-20010904/DTD/svg10.dtd"><svg version="1.0" xmlns="http://www.w3.org/2000/svg" width="512.000000pt" height="512.000000pt" viewBox="0 0 512.000000 512.000000" preserveAspectRatio="xMidYMid meet"><metadata>Created by potrace 1.16, written by Peter Selinger 2001-2019</metadata><g transform="translate(0.000000,512.000000) scale(0.100000,-0.100000)"><path d="M1125 4359c-248-11-420-36-580-86-252-79-413-234-484-467C7 3630 6 3617 2 2730c-4-861 0-982 39-1173 44-217 115-362 239-488 200-203 456-286 950-310 148-7 670-9 1520-6 1367 5 1388 5 1610 52 395 83 606 282 699 660 55 221 56 247 56 1175 0 648-3 876-13 943-58 396-203 586-527 690-158 51-321 74-612 87-243 11-2588 10-2838-1m1163-1118c337-169 1009-524 1030-544 70-64 68-161-5-228-33-31-1090-585-1143-599-67-18-143 18-174 84-14 30-16 101-16 634v599l23 34c12 18 38 44 56 56 55 37 96 31 229-36"/></g></svg>