<svg width="103" height="40" viewBox="0 0 103 40" fill="none" xmlns="http://www.w3.org/2000/svg">
<path d="M14.9375 0.25C8.92297 0.25 3.96875 2.79063 3.96875 5.875V18.5875C1.73844 19.6225 0.3125 21.1038 0.3125 22.75V39.625H18.5938V35.875H84.4062V39.625H102.688V22.75C102.688 21.1038 101.262 19.6225 99.0312 18.5875V5.875C99.0312 2.79063 94.077 0.25 88.0625 0.25H14.9375ZM14.9375 4H88.0625C90.0917 4 91.7188 4.83437 91.7188 5.875V17.125H84.4062V15.25C84.4062 12.1656 79.452 9.625 73.4375 9.625H58.8125C56.0082 9.625 53.4488 10.1875 51.5 11.0875C49.5005 10.1518 46.8943 9.6306 44.1875 9.625H29.5625C23.548 9.625 18.5938 12.1656 18.5938 15.25V17.125H11.2812V5.875C11.2812 4.83437 12.9083 4 14.9375 4ZM29.5625 13.375H44.1875C46.2167 13.375 47.8438 14.2094 47.8438 15.25V17.125H25.9062V15.25C25.9062 14.2094 27.5333 13.375 29.5625 13.375ZM58.8125 13.375H73.4375C75.4667 13.375 77.0938 14.2094 77.0938 15.25V17.125H55.1562V15.25C55.1562 14.2094 56.7833 13.375 58.8125 13.375ZM11.2812 20.875H91.7188C93.748 20.875 95.375 21.7094 95.375 22.75V35.875H91.7188V32.125H11.2812V35.875H7.625V22.75C7.625 21.7094 9.25203 20.875 11.2812 20.875Z" fill="black"/>
</svg>
