<svg width="75" height="75" viewBox="0 0 75 75" fill="none" xmlns="http://www.w3.org/2000/svg">
<path d="M37.5 67.5C45.4565 67.5 53.0871 64.3393 58.7132 58.7132C64.3393 53.0871 67.5 45.4565 67.5 37.5C67.5 29.5435 64.3393 21.9129 58.7132 16.2868C53.0871 10.6607 45.4565 7.5 37.5 7.5C29.5435 7.5 21.9129 10.6607 16.2868 16.2868C10.6607 21.9129 7.5 29.5435 7.5 37.5C7.5 45.4565 10.6607 53.0871 16.2868 58.7132C21.9129 64.3393 29.5435 67.5 37.5 67.5ZM37.5 11.25C39.9637 11.25 42.7763 13.4625 45.0825 18.405C45.8963 20.1525 46.605 22.1625 47.1788 24.375H27.8213C28.395 22.1625 29.1038 20.1525 29.9212 18.405C32.22 13.4625 35.0325 11.25 37.5 11.25ZM26.52 16.8188C25.4127 19.2443 24.5545 21.776 23.9587 24.375H14.76C17.9259 18.9033 22.9546 14.7531 28.9275 12.6825C28.0238 13.92 27.2175 15.3225 26.52 16.8188ZM23.22 28.125C22.7347 31.2263 22.4939 34.361 22.5 37.5C22.5 40.7625 22.7512 43.92 23.2237 46.875H12.975C11.8313 43.8818 11.2467 40.7042 11.25 37.5C11.25 34.2 11.8613 31.035 12.975 28.125H23.2237H23.22ZM23.9587 50.625C24.6187 53.4113 25.485 55.9575 26.52 58.1813C27.2175 59.6775 28.0238 61.08 28.9275 62.3175C22.9546 60.2469 17.9259 56.0967 14.76 50.625H23.9625H23.9587ZM27.8213 50.625H47.1788C46.6622 52.6748 45.9592 54.6732 45.0788 56.595C42.78 61.5375 39.9675 63.75 37.5 63.75C35.0362 63.75 32.2238 61.5375 29.9175 56.595C29.0397 54.6729 28.3393 52.6746 27.825 50.625H27.8213ZM47.9775 46.875H27.0225C26.5014 43.7773 26.243 40.6412 26.25 37.5C26.25 34.1887 26.5238 31.0312 27.0225 28.125H47.9775C48.4762 31.0312 48.75 34.1887 48.75 37.5C48.75 40.8112 48.4762 43.9688 47.9775 46.875ZM51.0413 50.625H60.24C57.0741 56.0967 52.0454 60.2469 46.0725 62.3175C46.9762 61.08 47.7825 59.6775 48.48 58.1813C49.515 55.9575 50.3812 53.4113 51.0413 50.625ZM62.0288 46.875H51.7762C52.2487 43.92 52.5 40.7625 52.5 37.5C52.5 34.2375 52.2487 31.08 51.7762 28.125H62.025C63.1388 31.035 63.75 34.2 63.75 37.5C63.75 40.8 63.1388 43.965 62.025 46.875H62.0288ZM46.0725 12.6825C52.0456 14.7528 57.0744 18.903 60.24 24.375H51.0375C50.4417 21.7761 49.5835 19.2443 48.4762 16.8188C47.8085 15.3658 47.0023 13.9807 46.0687 12.6825H46.0725Z" fill="white"/>
</svg>
