<svg width="42" height="44" viewBox="0 0 42 44" fill="none" xmlns="http://www.w3.org/2000/svg">
<path d="M20.625 20C22.956 20 25.2346 19.4135 27.1728 18.3147C29.1109 17.2159 30.6215 15.6541 31.5136 13.8268C32.4056 11.9996 32.639 9.98891 32.1843 8.0491C31.7295 6.10929 30.607 4.32746 28.9588 2.92894C27.3105 1.53041 25.2105 0.578004 22.9243 0.192152C20.6381 -0.193701 18.2684 0.00433281 16.1148 0.761209C13.9612 1.51809 12.1206 2.79981 10.8255 4.4443C9.53051 6.08879 8.83929 8.02219 8.83929 10C8.83929 12.6522 10.081 15.1957 12.2912 17.0711C14.5015 18.9464 17.4992 20 20.625 20ZM38.3036 45C39.085 45 39.8344 44.7366 40.387 44.2678C40.9396 43.7989 41.25 43.163 41.25 42.5C41.25 37.8587 39.077 33.4075 35.2091 30.1256C31.3411 26.8438 26.0951 25 20.625 25C15.1549 25 9.90886 26.8438 6.04092 30.1256C2.17298 33.4075 8.15107e-08 37.8587 0 42.5C0 43.163 0.310427 43.7989 0.862989 44.2678C1.41555 44.7366 2.16499 45 2.94643 45H38.3036Z" fill="black"/>
</svg>
