<?xml version="1.0" standalone="no"?>
<!DOCTYPE svg PUBLIC "-//W3C//DTD SVG 20010904//EN"
 "http://www.w3.org/TR/2001/REC-SVG-20010904/DTD/svg10.dtd">
<svg version="1.0" xmlns="http://www.w3.org/2000/svg"
 width="1188.000000pt" height="951.000000pt" viewBox="0 0 1188.000000 951.000000"
 preserveAspectRatio="xMidYMid meet">

<g transform="translate(0.000000,951.000000) scale(0.100000,-0.100000)"
fill="#4E5440" stroke="none">
<path d="M6438 9035 c-270 -38 -485 -134 -603 -268 -75 -86 -90 -126 -90 -242
0 -95 2 -103 34 -162 18 -35 56 -83 83 -109 27 -25 48 -49 46 -54 -2 -4 -46
-41 -98 -82 -109 -85 -411 -324 -780 -617 -255 -202 -990 -784 -1405 -1111
-121 -96 -305 -242 -410 -325 -104 -83 -332 -263 -505 -400 -173 -137 -409
-324 -525 -415 -257 -203 -542 -428 -680 -535 -56 -44 -221 -173 -366 -286
-145 -113 -388 -302 -539 -420 -359 -279 -496 -389 -492 -396 1 -4 269 -6 596
-5 l595 1 205 155 c113 86 299 226 412 312 113 85 208 154 210 152 2 -3 -7
-33 -21 -69 -76 -194 -136 -442 -177 -739 -19 -140 -16 -594 5 -733 116 -753
502 -1445 1114 -1992 86 -77 235 -195 246 -195 3 0 -39 66 -92 147 -288 434
-506 916 -610 1347 -82 338 -106 567 -98 946 13 576 111 965 375 1484 174 343
411 651 717 930 201 184 524 447 1810 1477 956 765 1316 1049 1332 1049 7 0
104 -73 215 -163 112 -90 309 -248 438 -352 129 -104 438 -351 685 -549 595
-475 1165 -932 2035 -1631 157 -126 345 -275 419 -332 l133 -103 569 0 c313 0
569 3 568 8 0 4 -122 106 -272 227 -533 430 -3397 2722 -3805 3045 -121 96
-221 179 -221 184 -1 5 22 33 50 63 69 73 100 147 100 237 0 121 -32 187 -136
284 -103 97 -281 177 -495 223 -125 27 -430 35 -572 14z"/>
</g>
</svg>
